<?xml version="1.0" encoding="UTF-8"?>
<svg id="_图层_1" data-name="图层 1" xmlns="http://www.w3.org/2000/svg" viewBox="0 0 1080 377">
  <defs>
    <style>
      .cls-1 {
        fill: #ede8d5;
      }

      .cls-2 {
        fill: #f3f2ed;
      }

      .cls-3 {
        fill: #ff953e;
      }
    </style>
  </defs>
  <g>
    <path class="cls-2" d="M217.12,102.48c2.75.58,4.28,2.17,4.57,4.79.14,1.6.25,3.52.33,5.76.07,2.25.11,4.68.11,7.29,0,3.19-.04,6.27-.11,9.24-.07,2.97-.18,5.47-.33,7.5-.29,2.32-1.89,3.62-4.78,3.91l-21.31,1.09c-2.9.15-4.57,1.45-5,3.92-3.34,13.49-6.6,28.86-9.79,46.11-3.19,17.26-5.8,34.73-7.83,52.42-.29,2.17-1.52,3.26-3.7,3.26-.73,0-2.43-.29-5.11-.87-2.69-.58-5.55-1.23-8.59-1.96-3.04-.72-5.95-1.48-8.7-2.28-2.76-.79-4.64-1.41-5.65-1.85-1.16-.44-2.03-1.2-2.61-2.28-.58-1.09-.87-2.21-.87-3.37.29-6.53.9-13.59,1.85-21.21.94-7.61,2.07-15.3,3.37-23.06,1.31-7.75,2.72-15.4,4.24-22.95,1.52-7.54,3.01-14.5,4.46-20.88v-.65c0-.14.03-.25.11-.33.07-.07.11-.18.11-.33,0-1.45-1.02-2.17-3.04-2.17-3.34.15-5.98.25-7.94.33-1.96.08-3.81.15-5.55.22-1.74.07-2.76.11-3.04.11-1.45,0-2.58-.36-3.37-1.09-.8-.72-1.27-1.67-1.41-2.83-.29-1.59-.51-3.84-.65-6.74-.15-2.9-.29-5.87-.44-8.92-.15-3.04-.25-5.83-.33-8.37-.07-2.54-.11-4.24-.11-5.11,0-1.16.36-2.21,1.09-3.15.72-.94,1.88-1.56,3.48-1.85,3.04-.43,7.21-.94,12.51-1.52,5.29-.58,11.13-1.09,17.51-1.52,6.38-.43,13.01-.79,19.9-1.09,6.89-.29,13.38-.44,19.47-.44,3.92,0,7.14.07,9.68.22,2.54.15,5.04.36,7.5.65Z"/>
    <path class="cls-2" d="M246.26,244.51c-.44,2.47-1.81,3.7-4.13,3.7-1.02,0-2.76-.25-5.22-.76-2.47-.51-5.11-1.16-7.94-1.96-2.83-.79-5.51-1.59-8.05-2.39-2.54-.79-4.39-1.41-5.55-1.85-2.32-1.01-3.48-3.04-3.48-6.09.29-5.94,1.01-13.34,2.17-22.19,1.16-8.84,2.5-17.83,4.02-26.97,1.52-9.14,3.15-17.73,4.89-25.77,1.74-8.05,3.33-14.39,4.79-19.03.72-2.46,2.54-3.7,5.44-3.7.87,0,2.61.25,5.22.76,2.61.51,5.44,1.12,8.48,1.85,3.05.73,5.94,1.45,8.7,2.17,2.75.73,4.57,1.31,5.44,1.74,1.88,1.02,2.83,2.39,2.83,4.13,0,.15-.04.29-.11.44-.07.15-.11.29-.11.43v.43c-1.6,7.25-3.26,15.04-5,23.38-1.74,8.34-3.41,16.75-5,25.23-1.6,8.48-3.04,16.75-4.35,24.79-1.3,8.05-2.32,15.26-3.04,21.64Z"/>
    <path class="cls-3" d="M248,88.99c7.97,0,14.21,1.92,18.7,5.76,4.49,3.84,6.74,8.52,6.74,14.03,0,6.09-2.21,11.2-6.63,15.33-4.42,4.13-10.41,6.2-17.94,6.2-6.52,0-11.35-1.96-14.46-5.87-3.12-3.92-4.68-8.7-4.68-14.36,0-3.92,1.09-7.47,3.26-10.66,2.18-3.19,4.57-5.87,7.18-8.05,2.03-1.59,4.64-2.39,7.83-2.39Z"/>
    <path class="cls-2" d="M313.25,154.68c3.62-5.36,7.47-9.71,11.53-13.05,4.06-3.33,8.05-5,11.96-5,2.61,0,5.51.87,8.7,2.61,3.19,1.74,6.2,3.95,9.03,6.63,2.83,2.68,5.22,5.58,7.18,8.7,1.96,3.12,2.94,6.06,2.94,8.81,0,1.74-.22,4.43-.65,8.05-.44,3.63-1.05,7.8-1.85,12.51-.8,4.71-1.71,9.79-2.72,15.22-1.02,5.44-2.07,10.88-3.15,16.31s-2.17,10.66-3.26,15.66c-1.09,5-2.14,9.46-3.15,13.38-.29,1.02-.91,1.89-1.85,2.61-.94.73-2,1.09-3.15,1.09-1.31,0-3.26-.36-5.87-1.09-2.61-.72-5.33-1.56-8.16-2.5-2.83-.94-5.48-1.96-7.94-3.04-2.47-1.09-4.21-1.99-5.22-2.72-1.89-1.3-2.83-2.9-2.83-4.79v-1.09c0-.14.07-.36.22-.65.72-3.04,1.63-7.1,2.72-12.18,1.09-5.07,2.18-10.33,3.26-15.77s2.03-10.69,2.83-15.77c.79-5.07,1.2-9.21,1.2-12.4,0-3.48-.58-5.22-1.74-5.22-1.02,0-2.9.8-5.65,2.39-2.76,1.6-5.22,3.55-7.4,5.87-1.16,1.16-1.96,2.32-2.39,3.48-.44,1.16-.8,2.32-1.09,3.48-1.02,5.08-2.07,10.37-3.15,15.88-1.09,5.51-2.14,10.88-3.15,16.1-1.02,5.22-2,10.15-2.94,14.79-.94,4.64-1.71,8.48-2.28,11.53-.73,2.32-2.17,3.48-4.35,3.48-1.31,0-3.26-.33-5.87-.98-2.61-.65-5.33-1.41-8.16-2.28-2.83-.87-5.44-1.74-7.83-2.61s-4.1-1.59-5.11-2.17c-1.16-.58-1.92-1.34-2.28-2.28-.36-.94-.54-1.99-.54-3.15v-1.09c0-.29.07-.51.22-.65.58-2.9,1.3-6.81,2.17-11.75.87-4.93,1.77-10.33,2.72-16.2.94-5.87,1.88-12,2.83-18.38.94-6.38,1.88-12.54,2.83-18.49.94-5.94,1.77-11.38,2.5-16.31.72-4.93,1.31-8.99,1.74-12.18.29-1.16.87-2.07,1.74-2.72.87-.65,1.88-.98,3.04-.98,1.01,0,2.72.18,5.11.54,2.39.36,4.93.8,7.61,1.3,2.68.51,5.22,1.02,7.61,1.52,2.39.51,4.17.98,5.33,1.41,2.46.87,3.77,2.9,3.92,6.09l.44,7.18c0,1.3.29,1.96.87,1.96.44,0,.79-.14,1.09-.44.14-.14.29-.36.44-.65Z"/>
    <path class="cls-2" d="M438.1,140.54c1.01-2.03,2.54-3.04,4.57-3.04,1.01,0,2.79.33,5.33.98,2.54.65,5.25,1.49,8.16,2.5,2.9,1.02,5.62,2.03,8.16,3.04,2.54,1.02,4.38,1.89,5.55,2.61,1.59,1.16,2.39,2.68,2.39,4.57,0,.15-.04.29-.11.44-.07.15-.11.29-.11.43v.65c-1.16,4.21-2.47,9.83-3.92,16.86-1.45,7.04-3.01,14.72-4.68,23.05-1.67,8.34-3.34,16.86-5,25.56-1.67,8.7-3.15,16.75-4.46,24.14-.58,3.34-1.78,7.61-3.59,12.83-1.81,5.22-4.53,10.26-8.16,15.12-3.63,4.86-8.23,9.03-13.81,12.51-5.58,3.48-12.43,5.22-20.55,5.22-2.47,0-5.11-.33-7.94-.98-2.83-.65-5.55-1.49-8.16-2.5-2.61-1.02-5.11-2.1-7.5-3.26-2.39-1.16-4.39-2.25-5.98-3.26-1.89-1.02-2.83-2.76-2.83-5.22v-.87c0-.29.07-.58.22-.87,0-.29.07-.58.22-.87.43-1.6,1.05-3.88,1.85-6.85.79-2.97,1.56-5.62,2.28-7.94.72-2.17,1.88-3.26,3.48-3.26.14,0,.29.03.44.11.14.07.36.11.65.11.29.14.51.22.65.22,3.62,1.45,6.81,2.46,9.57,3.04,2.75.58,5.15.87,7.18.87,3.92,0,7.14-.98,9.68-2.94,2.54-1.96,4.6-4.24,6.2-6.85,1.59-2.61,2.72-5.29,3.37-8.05.65-2.75.98-4.93.98-6.53,0-1.3-.15-1.96-.44-1.96-.15,0-.51.43-1.09,1.3-3.19,4.21-6.52,7.61-10,10.22-3.48,2.61-6.89,3.92-10.22,3.92-3.04,0-6.42-.98-10.11-2.94-3.7-1.96-7.11-4.49-10.22-7.61-3.12-3.12-5.76-6.63-7.94-10.55s-3.26-7.9-3.26-11.96c0-6.52.51-13.3,1.52-20.34,1.01-7.03,2.25-13.74,3.7-20.12,1.45-6.38,3.04-12.25,4.79-17.62,1.74-5.36,3.26-9.64,4.57-12.83.29-1.01.9-1.85,1.85-2.5.94-.65,1.99-.98,3.15-.98.58,0,2.14.43,4.68,1.31,2.54.87,5.29,1.85,8.27,2.94,2.97,1.09,5.8,2.17,8.48,3.26,2.68,1.09,4.46,1.92,5.33,2.5,1.31.87,1.96,2.32,1.96,4.35,0,.29-.04.47-.11.54-.07.07-.11.25-.11.54v.65c-1.02,3.04-2.18,7.07-3.48,12.07-1.31,5-2.54,10.19-3.7,15.55-1.16,5.37-2.14,10.51-2.94,15.44-.8,4.93-1.2,8.77-1.2,11.53s.51,4.13,1.52,4.13c2.32,0,5.07-1.38,8.27-4.13,3.19-2.75,5.8-5.8,7.83-9.14.87-1.45,1.38-2.75,1.52-3.91.58-4.06,1.34-8.59,2.28-13.59.94-5,1.99-10.04,3.15-15.12,1.16-5.07,2.43-9.93,3.81-14.57,1.38-4.64,2.72-8.62,4.02-11.96Z"/>
    <path class="cls-2" d="M548.15,226.02c-.14-2.03-.22-4.31-.22-6.85v-8.59c0-3.19.03-6.56.11-10.11.07-3.55.18-7.36.33-11.42,0-.29-.04-.69-.11-1.2-.07-.51-.25-.76-.54-.76-.15,0-.29.08-.44.22s-.36.73-.65,1.74c-1.6,5.65-3.15,11.42-4.68,17.29-1.52,5.87-2.97,11.38-4.35,16.53-1.38,5.15-2.68,9.75-3.91,13.81-1.23,4.06-2.43,7.11-3.59,9.13-.44.87-1.2,1.56-2.29,2.07-1.09.51-2.14.76-3.15.76-2.76,0-5.98-.58-9.68-1.74-3.7-1.16-7.43-2.54-11.2-4.13-3.77-1.59-7.32-3.33-10.66-5.22-3.34-1.88-5.87-3.62-7.61-5.22-1.16-1.01-1.99-1.96-2.5-2.83-.51-.87-.91-2.1-1.2-3.7-.29-3.19-.51-6.56-.65-10.11-.15-3.55-.22-7.21-.22-10.98,0-9.14.29-18.67.87-28.6.58-9.93,1.34-19.47,2.28-28.6.94-9.13,1.96-17.43,3.04-24.9,1.09-7.47,2.07-13.16,2.94-17.07.29-.87.8-1.67,1.52-2.39.72-.72,1.67-1.09,2.83-1.09,1.31,0,3.26.15,5.87.43,2.61.29,5.33.69,8.16,1.2,2.83.51,5.58,1.12,8.27,1.85,2.68.73,4.75,1.45,6.2,2.17,1.59.73,2.61,1.6,3.04,2.61.43,1.02.65,2.1.65,3.26,0,.29-.04.54-.11.76-.07.22-.11.47-.11.76v.87c-.58,3.91-1.34,9.54-2.28,16.86-.95,7.32-1.92,15.3-2.94,23.93-1.02,8.63-1.96,17.29-2.83,25.99-.87,8.7-1.45,16.46-1.74,23.27v.65c0,.43.22.65.65.65.29,0,.58-.14.87-.44.14-.14.22-.36.22-.65,2.46-8.7,5.07-17.76,7.83-27.19,2.75-9.42,5.51-18.56,8.27-27.4,2.75-8.84,5.4-17.11,7.94-24.79,2.54-7.68,4.82-14.14,6.85-19.36.72-1.88,2.03-2.83,3.92-2.83,1.74,0,3.77.25,6.09.76,2.32.51,4.68,1.16,7.07,1.96,2.39.8,4.71,1.67,6.96,2.61,2.25.94,4.24,1.85,5.98,2.72,2.75,1.45,4.13,3.19,4.13,5.22,0,.29-.04.54-.11.76-.07.22-.11.47-.11.76v.87c-.58,3.92-1.3,9.32-2.17,16.2-.87,6.89-1.78,14.36-2.72,22.4-.95,8.05-1.81,16.2-2.61,24.47-.8,8.27-1.34,15.81-1.63,22.62v.65c0,.43.22.65.65.65.29,0,.58-.14.87-.44.14-.14.22-.36.22-.65,2.46-8.41,5.11-17.43,7.94-27.08,2.83-9.64,5.65-19.07,8.48-28.28,2.83-9.21,5.55-17.8,8.16-25.77,2.61-7.97,4.93-14.57,6.96-19.79.72-1.88,2.03-2.83,3.92-2.83,1.16,0,3.12.54,5.87,1.63,2.75,1.09,5.65,2.32,8.7,3.7,3.04,1.38,5.87,2.79,8.48,4.24,2.61,1.45,4.35,2.54,5.22,3.26,1.59,1.3,2.39,2.76,2.39,4.35,0,.29-.04.54-.11.76-.07.22-.11.4-.11.54v.44c-2.17,5.95-4.6,12.76-7.29,20.44-2.69,7.69-5.44,15.59-8.27,23.71-2.83,8.12-5.65,16.31-8.48,24.58s-5.55,15.99-8.16,23.16c-2.61,7.18-4.97,13.63-7.07,19.36-2.1,5.73-3.88,10.11-5.33,13.16-.43.87-1.2,1.56-2.28,2.07-1.09.51-2.14.76-3.15.76-2.76,0-5.91-.44-9.46-1.31-3.55-.87-7.18-1.99-10.88-3.37-3.7-1.38-7.29-2.97-10.77-4.79-3.48-1.81-6.38-3.66-8.7-5.55-1.16-.87-2-1.96-2.5-3.26-.51-1.3-.91-2.75-1.2-4.35Z"/>
    <path class="cls-2" d="M694.31,242.98c-1.89-.58-3.15-1.41-3.81-2.5-.65-1.09-1.12-2.21-1.41-3.37l-.65-7.18c0-1.16-.29-1.74-.87-1.74-.43,0-.87.43-1.3,1.3-3.48,6.09-7.07,10.77-10.77,14.03-3.7,3.26-7.29,4.89-10.77,4.89-3.77,0-7.65-1.05-11.64-3.15-3.99-2.1-7.65-4.97-10.98-8.59-3.34-3.62-6.09-7.83-8.26-12.62-2.18-4.78-3.26-9.79-3.26-15.01,0-6.53.83-13.99,2.5-22.4,1.67-8.41,4.42-16.35,8.26-23.82,3.84-7.47,8.81-13.77,14.9-18.92,6.09-5.15,13.63-7.72,22.62-7.72,2.9,0,6.52.54,10.88,1.63,4.35,1.09,8.92,2.54,13.7,4.35,4.79,1.81,9.5,3.88,14.14,6.2,4.64,2.32,8.84,4.71,12.62,7.18,1.74,1.16,2.61,2.69,2.61,4.57,0,.15-.04.29-.11.43-.08.15-.11.36-.11.65v.65c-2.17,8.12-4.02,16.13-5.55,24.03-1.52,7.9-2.76,15.44-3.7,22.62-.95,7.18-1.63,13.85-2.07,20.01-.43,6.17-.73,11.42-.87,15.77-.15,1.02-.54,1.89-1.2,2.61-.65.73-1.49,1.09-2.5,1.09-.87,0-2.25-.18-4.13-.54-1.89-.36-3.95-.83-6.2-1.41-2.25-.58-4.5-1.12-6.74-1.63-2.25-.51-4.02-.98-5.33-1.41ZM683.44,206.44c1.3-1.31,2.1-2.75,2.39-4.35.72-5.07,1.67-10.15,2.83-15.22,1.16-5.07,2.25-10.08,3.26-15.01v-1.09c0-1.59-.51-2.75-1.52-3.48-1.02-.72-2.25-1.09-3.7-1.09-3.05,0-5.73,1.45-8.05,4.35-2.32,2.9-4.32,6.38-5.98,10.44-1.67,4.06-2.9,8.3-3.7,12.72-.8,4.42-1.2,8.16-1.2,11.2s.29,5.15.87,6.74c.58,1.6,1.3,2.39,2.17,2.39,1.59,0,3.59-.76,5.98-2.28,2.39-1.52,4.6-3.3,6.63-5.33Z"/>
    <path class="cls-2" d="M784.79,154.68c3.62-5.36,7.47-9.71,11.53-13.05,4.06-3.33,8.05-5,11.96-5,2.61,0,5.51.87,8.7,2.61,3.19,1.74,6.2,3.95,9.03,6.63,2.83,2.68,5.22,5.58,7.18,8.7,1.96,3.12,2.94,6.06,2.94,8.81,0,1.74-.22,4.43-.65,8.05-.44,3.63-1.05,7.8-1.85,12.51-.8,4.71-1.71,9.79-2.72,15.22-1.02,5.44-2.07,10.88-3.15,16.31-1.09,5.44-2.17,10.66-3.26,15.66-1.09,5-2.14,9.46-3.15,13.38-.29,1.02-.91,1.89-1.85,2.61-.95.73-2,1.09-3.15,1.09-1.3,0-3.26-.36-5.87-1.09-2.61-.72-5.33-1.56-8.16-2.5-2.83-.94-5.47-1.96-7.94-3.04-2.47-1.09-4.21-1.99-5.22-2.72-1.89-1.3-2.83-2.9-2.83-4.79v-1.09c0-.14.07-.36.22-.65.72-3.04,1.63-7.1,2.72-12.18,1.09-5.07,2.17-10.33,3.26-15.77,1.09-5.44,2.03-10.69,2.83-15.77.79-5.07,1.2-9.21,1.2-12.4,0-3.48-.58-5.22-1.74-5.22-1.02,0-2.9.8-5.66,2.39-2.76,1.6-5.22,3.55-7.39,5.87-1.16,1.16-1.96,2.32-2.39,3.48-.43,1.16-.8,2.32-1.09,3.48-1.02,5.08-2.07,10.37-3.15,15.88-1.09,5.51-2.14,10.88-3.15,16.1-1.02,5.22-1.99,10.15-2.94,14.79-.95,4.64-1.71,8.48-2.28,11.53-.73,2.32-2.17,3.48-4.35,3.48-1.31,0-3.26-.33-5.87-.98-2.61-.65-5.33-1.41-8.16-2.28-2.83-.87-5.44-1.74-7.83-2.61-2.39-.87-4.1-1.59-5.11-2.17-1.16-.58-1.92-1.34-2.28-2.28-.36-.94-.54-1.99-.54-3.15v-1.09c0-.29.07-.51.22-.65.58-2.9,1.3-6.81,2.17-11.75.87-4.93,1.77-10.33,2.72-16.2.94-5.87,1.88-12,2.83-18.38.94-6.38,1.88-12.54,2.83-18.49.94-5.94,1.77-11.38,2.5-16.31.72-4.93,1.3-8.99,1.74-12.18.29-1.16.87-2.07,1.74-2.72.87-.65,1.88-.98,3.04-.98,1.01,0,2.72.18,5.11.54,2.39.36,4.93.8,7.61,1.3,2.68.51,5.22,1.02,7.61,1.52,2.39.51,4.17.98,5.33,1.41,2.46.87,3.77,2.9,3.92,6.09l.43,7.18c0,1.3.29,1.96.87,1.96.43,0,.79-.14,1.09-.44.14-.14.29-.36.43-.65Z"/>
    <path class="cls-2" d="M840.03,206.88c0-6.52.9-13.88,2.72-22.08,1.81-8.19,4.64-15.88,8.48-23.05,3.84-7.18,8.84-13.23,15.01-18.16,6.16-4.93,13.59-7.4,22.29-7.4,2.75,0,6.38.58,10.88,1.74,4.49,1.16,9.21,2.69,14.14,4.57,4.93,1.89,9.75,3.91,14.46,6.09,4.71,2.17,8.59,4.28,11.64,6.31,1.45,1.02,2.17,2.69,2.17,5,0,.29-.04.54-.11.76-.07.22-.11.4-.11.54v.43c-1.02,4.35-2.17,9.72-3.48,16.09-1.3,6.38-2.61,13.23-3.91,20.55-1.31,7.32-2.65,14.86-4.02,22.62-1.38,7.76-2.72,15.12-4.02,22.08-.58,3.34-1.81,7.58-3.7,12.72-1.89,5.15-4.68,10.11-8.37,14.9-3.7,4.79-8.37,8.88-14.03,12.29-5.66,3.41-12.54,5.11-20.66,5.11-2.17,0-4.64-.29-7.39-.87-2.76-.58-5.51-1.34-8.27-2.28-2.76-.95-5.33-2-7.72-3.15-2.39-1.16-4.39-2.32-5.98-3.48-1.02-.73-1.71-1.52-2.07-2.39-.36-.87-.54-1.74-.54-2.61v-.87c0-.15.07-.36.22-.65.58-2.32,1.27-5,2.07-8.05.79-3.04,1.63-5.87,2.5-8.48.58-1.74,1.67-2.61,3.26-2.61.14,0,.29.03.43.11.14.07.29.11.44.11h.43c3.48,1.45,6.45,2.46,8.92,3.04,2.46.58,4.71.87,6.74.87,3.62,0,6.78-.76,9.46-2.28,2.68-1.52,4.89-3.45,6.63-5.76,1.74-2.32,3.04-4.86,3.92-7.61.87-2.75,1.31-5.44,1.31-8.05,0-1.3-.22-1.96-.65-1.96s-.94.44-1.52,1.31c-2.9,3.92-5.91,7.18-9.03,9.79-3.12,2.61-6.2,3.92-9.24,3.92-3.77,0-7.65-1.05-11.64-3.15-3.99-2.1-7.58-4.97-10.77-8.59-3.19-3.62-5.8-7.79-7.83-12.51-2.03-4.71-3.04-9.68-3.04-14.9ZM892.67,206.44c1.3-1.31,2.1-2.75,2.39-4.35.72-5.07,1.67-10.15,2.83-15.22,1.16-5.07,2.25-10.08,3.26-15.01v-1.09c0-1.59-.51-2.75-1.52-3.48-1.02-.72-2.25-1.09-3.7-1.09-3.04,0-5.73,1.45-8.05,4.35-2.32,2.9-4.32,6.38-5.98,10.44-1.67,4.06-2.9,8.3-3.7,12.72-.8,4.42-1.2,8.16-1.2,11.2s.29,5.15.87,6.74c.58,1.6,1.3,2.39,2.17,2.39,1.59,0,3.59-.76,5.98-2.28,2.39-1.52,4.6-3.3,6.63-5.33Z"/>
  </g>
  <path class="cls-1" d="M910.9,237.17c.41-.52.18-1.68-.96-1.45l-.8,1.98,1.77-.53Z"/>
  <path class="cls-1" d="M903.23,233.52c-1.34.96-2.88,2.66-2.01,4.47,1.32-1.91,1.64-1.11,3.07-3.39,1.14-.23,1.99.63,1.8,1.36.4-.51,1.77.43,2.38-.82-1.49-1.53-3.37-1.59-5.33-.31-.42-.43-.02-.95.08-1.32Z"/>
  <path class="cls-1" d="M791.84,230.81l.72.23c-.2-.13-.44-.2-.72-.23Z"/>
  <path class="cls-1" d="M722.82,230.07c.53-.05.74-.25.77-.43-.49.13-.89.26-.77.43Z"/>
  <path class="cls-1" d="M711.02,227.96c.25.05.47.09.7.13-.27-.18-.53-.28-.7-.13Z"/>
  <path class="cls-1" d="M791.84,230.81l-1.85-.61c-.13.65.95.48,1.85.61Z"/>
  <path class="cls-1" d="M887.89,238.34c.39-.1.71-.28,1-.52-.32.09-.62.16-.94.21-.02.11-.04.19-.06.31Z"/>
  <path class="cls-1" d="M822.25,229.08h.56c.16-.23.32-.5.46-.81l-1.02.81Z"/>
  <path class="cls-1" d="M845.6,228.69c-.53-.07-.71,1.61-.91,2.35.3-.69.68-1.03,1.15-1.16,0-.32-.06-.7-.24-1.19Z"/>
  <path class="cls-1" d="M882.63,231.53l.66-.24c-.17.07-.46.14-.66.24Z"/>
  <path class="cls-1" d="M805.54,228.78c-.04-.25-.13-.47-.22-.6,0,.21.09.41.22.6Z"/>
  <path class="cls-1" d="M152.71,248.14c.02-.12-.01-.2,0-.3-.13.17-.17.29,0,.3Z"/>
  <path class="cls-1" d="M125.52,240.25l.37-.1c.03-.32.07-.63.07-.94l-.44,1.04Z"/>
  <path class="cls-1" d="M689.44,225.94s.06.02.1.03c.57-.2.25-.16-.1-.03Z"/>
  <path class="cls-1" d="M491.47,228.81c2.26,1.48-3.63,1.97-.24,3.6-.32-.65,3.04-2.65.24-3.6Z"/>
  <path class="cls-1" d="M887.28,238.12c-.32.02-.64.04-.96.02.44.05.73.04.96-.02Z"/>
  <path class="cls-1" d="M491.24,232.41v.02s.35.15.35.15c-.14-.07-.23-.11-.35-.17Z"/>
  <path class="cls-1" d="M639.76,227.29c.1.3.3.52.51.73-.02-.17-.13-.38-.51-.73Z"/>
  <path class="cls-1" d="M676.79,229.43l-.92-.22c.36.15.66.2.92.22Z"/>
  <path class="cls-1" d="M620.56,229.81c-.5-.13-.67-.36-1.35-.13.06.09.13.15.21.2.24-.23.57-.34,1.14-.08Z"/>
  <path class="cls-1" d="M600.55,229.98c.11.13.25.22.37.34.2-.03.43-.06.63-.1l-1.01-.24Z"/>
  <path class="cls-1" d="M213.47,246.37c-.45-.47-.73-.98-.95-1.5.33,1.19-2.61,1.66.95,1.5Z"/>
  <path class="cls-1" d="M887.87,237.39c-.12.43-.29.64-.59.73.23-.02.45-.05.67-.09.06-.25.07-.49-.07-.63Z"/>
  <path class="cls-1" d="M619.84,243.09l-3.18-.23c.89.16,2.05.23,3.18.23Z"/>
  <path class="cls-1" d="M356.94,244.14l-.73.21c.28.03.54-.02.73-.21Z"/>
  <path class="cls-1" d="M607.24,243.19c-.57-.59-1.18-.93-1.8-1.15-.13.13-.28.24-.37.44l2.16.71Z"/>
  <path class="cls-1" d="M212.52,244.86v.02s0-.02,0-.02Z"/>
  <path class="cls-1" d="M197.27,259.85c3.24,0,1.49-2.34,2.15-3.71,3.86-.73,1.82,1.72,3.15,2.9,2.4-.66,4.22-2.86,6.02-2.8.14.39.49.52.09,1.02,2.52-1.92,7.57-.21,10.51-2.62.22.21.34.4.4.58-.5-1.18-.59-2.38-.51-3.24,1.45-.06,2.67-1.54,3.24,0-.89-.03-.96.59-1.36,1.08l1.51-.7c1.4,2.2-2.07.8-2.04,2.45,2.96-.77,6.39-2.66,8.67-2.07.51,2.17-5.3.81-2.24,2.7l-3.53-.78c2.74,3.39-2.14-.21.38,3.43,4.64.56,5.16-1.19,9.79-.62,1.02-1.22-.37-1.78.65-3.01,6.53-2.27,5.25,5.39,10.03,2.43,1.23-1.47,1.67-4.23,5.13-2.82l-1.14,2.48c4.48.18,2.51-3.57,7.22-1.99-.82.98-3.51.87-2.83,1.15,3.07,1.9,2.13-1.43,4.47-1.46l.52,2.17c4.77-.41,10-2.06,15.28-2.54-.28.65-1.18,1.35.07,1.99,6.65-1.19,14.23.06,20.68,1.27l2.43-1.91c.57.01,1.07.83.46,1.21,2.52.68.11-1.19,1.31-1.95,1.42-.15,1.9,1.05,1,1.63,4.4-1.65,12.55-3.61,17.23-1.66l-.9.57c3.64.71,4.04-3.91,7.43-2.2l-.64.34c7.88.71,16.56-1.13,22.6,1.63,1.11-2.72,7.81,1.11,8.26-2.67,4.52,1.81,3.24,2.5,9.59,3.68,1.69.15,2.49-2.39,4.58-2.81l.08,1.97,2.81-2.11,1.54,2.34,1.95-.53c-.78-.11-1.67-.87-1.56-1.44,3.05-.93,7.48,1.28,7.57,2.29l7.22-1.76c-.15.8-1.36,1.08-2.31,1.6,3.84-2.06.73,2.07,4.25.18-.48-.44.24-1.18.32-1.58,1.78,1.17,5.8,1.14,8.77.6l-.55,1.37c5.38.28,11.32-.79,17.35-.83-2.17-.61-1.7-2.97.06-3.22l.73,2.07c1.13-1.3-1.86-.76.47-2.37,2.26.21,1.54,2.35.26,3.05l2.73-.76c.17.62-.47.96-.63,1.75,1.11-1.31,4.75,2.04,6.35-.23l.16.62c6.03-.05,8.76-.8,13.67-.97.08-1.8,2-1.43,3.45-2.9,3.62.53,7.64,1.91,11.99,1.71,3.05-.93.88-1.53,2.24-2.62.24,1.64,4.59,1.44,2.34,2.64,5.22-.32,6.66-.4,13.25-1.8-.72-.67-1.53-.95-1.12-1.51,1.2-.28,2.73.66,2.57,1.45l-.31.17c7.38-2.54,17.15,4.6,23.02,1.11l-.33.17,6.1-1.84c2.82.26-1.68,1.25.42,2.24,6.57-2.8,10.43.29,15.85-1.58,4.26,4.8,14.93-.49,20.64,2.54l-.34-1.14c1.46-1.13,1.78.63,2.87.88-.16-.88-1.6-1.01-.7-1.64,12.42-1.5,25.68,1.43,38.44,2.34,4.67.26,2.59-5.92,8.5-3.25l-1.65,2.13c9.39-2.63,19.24-.08,28.43-2.31-.55.49-.56,1.13-1.45,1.13,1.96,1.52,7.2.02,7.22-1.24,1.44.13.34,1.13,1.23,1.76,1.96.89,4.88-2,5.93-.48.18.25-.54.5-.9.62,1.27-.75,5.93.14,4.69-1.62,3.46.82,6.61-.84,9.37.18,1.78-2,5.93.91,6.47-1.9-.22,2.9,6.08,2.29,8.25.91-.73.88,1.91.89,1.06,2.11,2.49-.06,4.78-.61,4.33-2.1,4.62,3.43,9.22-2.86,11.84,1.57,7.4-1.61,14.25-2.71,20.91-3.44-.22,2.89-7.37.34-7.06,3.37,6.32-1.24,9.95-3.74,16.22-3.09,1.63.38-.91,1.26-1.46,1.76,6.31-1.24,12.22.18,17.83-1.43-.01.27-.62.57-1.19.79,1.11-.1,2.58.4,2.45-.9l-1.08.36c-1.78-1.89,4.37-4.01,4.57-5.02-1.86,3.78,5.56.91,2.6,5.69.73-.25,1.64-.88,1.47-1.76,1.08.25,1.43.76.34,1.77,3.96-.74,2.54-2.13,6.14-2.12,0,.64-.73.89-1.1,1.64,1.81-1.25,3.63-2.5,6.68-1.98-.18.38.18.88-.73.88,5.22-.23,8.87-3.36,14.61-2.2-1.67,2.77,1.95.9,2.27,3.29l3.07-.73-1.24-1.15c2.7.03,5.07-1.73,7.39-.96l-2,1,5.05-.48-2.87-.89c2.72-1.25-.31-3.02,3.28-2.38-.73.24,2.7.01,4.11,1.42h0c1.33-.76,2.7-1.57,4.7-.99.52.76-.4,2.65-.06,3.15,1.3-2.01,6.31-.59,7.97-2.73-.55.5-.58,1.76-.39,2.01l1.1-1.63c1.25.51,1.44.76,1.24,1.76,3.76.28-1.21-3.03,3.26-1.74-.35.13-.18.37-.91.63,4.48.66,8.65-1.08,12.77-.3,1.23,2.4-3.59.61-2.19,2.63,5.93-.47,12.27-2.95,18.02-2.41l-1.07-.26c.78-3.4,4.28,1.66,7.18.04-.71.26-.92,1.89-.73,1.51,3.94.53,8.04-.87,13.99-1.97l-.73.88c2.32.77,6.11.42,8.61.81.74-.87,2.17-.74,1.3-2,7.74,4.94,14.71-2.73,21.58,1.38-.82.01-1.95.77-1.3.77l5.83-.82c-.47-1.48-.77-.89-2-2.04.73-.88,2.38-1.57,3.82-1.57-2.62.99.03,2.38,1.17,3.2-.19-.45.19-.95.1-1.42,3.06,2.62.5-2.98,4.67-1.22l-.22.78c1.56-.4,2.99-1.44,4.67-1.22.7,1.71-1.65.8-1.76,2.21,2.36-.11,4.64-3.26,6.78-1.56-1,.48-2.44.49-3.44.97,2.33,2,2.6,1.49,4.33,1.8l-.17-.04,4,.9-1.02-.54c2.94-4.47,6.01-.84,9.97-3.78-3.86,2.78-.63,1.6-.92,3.54,1.02.53,2.56,1.13,2.12,1.68,1.87-1.57,3.14,1.22,5.79-1.08.12.62,2.01.05,1.59,1.62,2.44-.5-.58-1.08-.38-1.87,3.76-2.15,8.86,2.56,14.27-.38,4.67-1.22,5.53-3.33,9.86-4.39,1.47,1-1.19,2.28-1.19,2.28,2.36.91,4.14.74,6.36.02-.45.55.02,1.01.7,1.7,1.78-.17,1.19-2.28,3.54-1.36-.4.7-.92,1.81-1.78,2.51,2.1-.58,4.18-1.75,6.35-2.32.58,1.09-1.31,1.65-2.08,2.37,2.45-.5,6.34-1,7.09-2.73l-1.57-.61c.89-.09.46,1.48-.19,1.79-2.09,1.36-3.03-.59-3.15-1.22l1.55-.4c-1.6-3.66-6.23.6-9.35.4l1.29-2.67-3.2,2.22c-.68-.69-1.15-2.18.39-2.58-2.24-1.31-1.98.95-3.91-.51-.21-.23-.12-.36.08-.46l-2.18.8c.43-.56-.37-1.88.98-1.5-3.93-1.53-6.32,2.02-7.81,0l.33-.16c-5.44.92-.52,1.96-4.6,4.26l-2.76-4.82-.53,1.96c-.56-.07-1.67-.21-1.47-1-2.09,1.34.36.85-.85,2.12-2.71-1.78-7.45.86-8.07-2.26-.97,1.49,2.59,1.14-.29,2.18-.83-3.35-3.34.59-5.81-.94.75-1.73,3.1-.82.62-2.36-1.48,2.93-4.81-.62-6.89-.05-.09,2.33-4.53.99-8.02,1.77.22-.78-6.58-1.25-9.84-2.08l.09-.39c-.62,2.35-3.98,1.92-6.42,2.42.09-1.41.53-1.97,1.85-2.6l-2.3.02c-.54.76-1.25,1.16-2.74,1.43l.57-1.76c-3.06.11-6.15,2.09-10.09.93-.21,1.64,3.15,4.55-1.01,5.67-.16-.89-.32-2.4.77-2.77-.36.12-1.27.74-1.99.37l1.66-1.5c-1.79-.65-.93,1.25-2.36,1.12.02-1.27-1.06-.9-.86-1.9.36-.12,1.25.52,1.8.02-1.62-.22-3.57-.96-4.22-1.92.14.72,0,1.7-1.17,1.87-3.06.11-1.05-1.52-2.84-2.16-.74.88-2.69-.02-2.73,1.87-.89,0-1.06-.89-1.41-1.4-1.58.84-7.39.27-5.6,2.28l.41.13c-.08.04-.17.04-.26.08h.01s-.01,0-.01,0c-5.18,1.9-10.78-1.02-15.92-.19v-.63c-3.06.74-6.83.46-9.02,1.83-.91,0-2.15-1.15-1.76-1.9-2.35.49-2.61,1.2-6,.17,2.36-1.12-.82-.98,2.42-.82-3.05-.53-3.75-1.54-7.02.21,1.11-1.63-2.31-2.03-3.76-1.54l2.14,1.15c-1.63.25-3.06.11-4.51-.02l.77-2.14c-6.26-2.56-11.24,4.47-16.01.16-1.64,1.5,3.4,1.03,1.93,2.78-2.87-.27-5.88-3.31-6.78-3.32-3.94-1.16-3.65,3.13-7.77,2.35.53.76,1.04,2.78-2.03,3.52-2.88-.27-3.55-3.17-1.74-3.79.69-.07,1.02.17,1,.43.93-.28,2.14-.61,1-1.43l-.37.76c-1.43-.77-5.38-.66-4.46-1.92-2.17.74-.92,1.25.69,1.64-3.69-1.08-5.76,0-9.56-.72.61.42,1.17,1.3.57,1.3-5.57-.91-2.44,1.46-6.21,1.81-2.15-1.14.75-2.77-3.04-1.78-2.32-.77-.5-2.01.41-2.64-3.45,1.49-6.47-.92-8.44-1.18l1.82-.62c-1.09.37-1.98.37-2.89.37l1.05,1.51c-1.07-.26-1.98-.26-1.96-.89-1.1,1,.86,2.52-1.32,3.9-1.43-.76-4.34.86-4.84-1.16,4.49.66-.51-2.02,3.29-2.37-.73.25-1.62.24-2.7-.02-.16-.22.15-.42.44-.54-4.3-1.78-1.96,2.29-6.41,2.28.56-1.14-1.04-2.15-1.77-1.9,1.79.01.87,1.89-.77,2.77-2.86-.87-3.09.68-4.59.58l1.71.41c-.57,1.14-2,1-3.98,1.37-.18-.88,1.8-.62,1.09-1.01-2.19,2.01-5-2.04-8.07-.67-1.43-.76-.15-2.14-1.41-2.65-3.44,1.5-3.75-1.53-7.36-.29,1.06,1.52,1.24,1.15-1.31,2.65l5.95-1.12-3.81,2.25c1.8,0,3.79-.99,4.87-.74-1.81,1.26-1.63.88-.76,2.14-2.48-2.27-4.87,1.37-7.73-.16l.06-3.79c-4.29-1.65-7.59,2-13.15,1.09l1.79.65c-.73,1.51-3.43.23-5.22.86.16-1.27-.97-1.72-1.74-2.5.1.94-4.07-.06-4.55,2.47l-2.49-1.65c-4.49-.65-5.09,3.64-9.41,3.24,1.29-1.38-.68-2.27,2.2-3.27-1.44,0-2.74-.22-2.75.65-.85-.79-3.98,1.73-5.31.54-.6.56-.79,1.89-2.41,1.79-.18-.26,0-.63,0-.63,0,.63-2.52.87-1.1,2.26-4.46-3.91-12.39.39-16.28-2.97-3.14.45-6.92.89-9.77,1,.18-.38,0-.63.54-.5-3.94-1.14-2.39,3.65-6.88,2.37-2.3-2.02,2.37-1.12.94-1.89-.66-4.16-5.4.61-8.43-1.79l.73-.25c-2.31-1.39-5.6,1.62-9.37,1.36,0,0,.18-.37.02-.63-2.55,2.14-7.42,2.89-11.03,3.51,1.11-1.64,1.64-.88.93-2.52-1.62.25.5,2.65-2.74,3.14-1.06-.88-3.4-1.64-3.73-3.4l3.05-.12c-1.58-2.27-3.95.11-5.57-.27l.2-1c-4.68.37-4.72,2.88-9.75,2.75l.53.75c-2.73,2.52-2.32-1.38-5.04.5l-.85-2.52c-1.81.63-6.33,2.5-9.58,3.01,1.83-1.89,5.62-2.88,7.97-4.02-1.8,0-6.11.24-7.03,1.5.72-.25,1.63-.88,2.35-.5-2.19,2.01-5.08,3.01-8.66,3,.59-4.91-9.35-1.15-11.99-4.93-6.32,1.88-12.58-.65-19.97-.28,2.66,3.79-2.15.13-1.66,4.04-1.72.27-2.37.21-2.53-.04l-5.24-2.29c-1.25-1.13,1.63-.88,1.46-1.76-3.77-.26-1.6-1.64-4.1-2.66.53,1.4-1.29,2.02-3.44,1.51l3.04,1.78c-5.24,2.14-4.58-3.24-9.87-1.12l1.67-1.25c-2.72.75-10.04.08-12.68,3.25-.49-.45-1.13-1.51.06-1.81-6.51-.4-14.45,3.51-19.52,1.62l.48-.96c-1.21.29-2.09,1.82-3.62.87.07-.4.48-.96-.08-1.01-.64.34-3.21,1.71-4.82,1.17l1.36-1.09c-6.36-1.18-9.71,2.73-15.02,3.44-.02-2.82-5.02-3.68-7.52-4.11l.08-.4c-7.39-.26-12.53,2.48-19.36,3.67-4.28-3.01-14.4-1.11-21.25-2.75,1.05.5-.14,2.2-1.35,2.5-1.61-.55-4.4,2.01-4.18-.58l.57.04c-1.24-2.52-4.52-1.81-7.09-1.85l-.38,3.39c-6.79-4.83-17.6,2.03-21.32-2.33-1.61.87-3.62.88-5.22,1.75l.06-1.81c-4.5-.41-6.75-.61-12.3-.1l1.12-1.31c-3.14-.08-3.89,5.28-6.78,5.42l-.91-2.7c-5.47.11-11.04-2.19-16.41.34.08-.4.23-1.18,1.12-1.3-2.58-.04-9.98-1.7-9,2.01-.1-2.42-5.65-.16-8.58.95l.44-1.79c-2.46,2.31-2.53,2.94-6,3.62-.83-.22-.74-1.42.36-.98-2.76-.9-2.12,1.72-5.46.81l1.23-1.16c-2.83-.1-2.6.51-4.14,1.86-1.77.74-5.37-.38-5.81-1.98-.37.99-1.9,2.33-3.57,1.88-.23-.61.37-.99.67-1.18-4.75-1.15-7,2.18-10.28.47-.08-.59-.29-.88-.56-1.06,3.76-.01,6.78.04,6.5.18-.02-1.65-3.06-1.89-.68-4.2-2.42,1.28-6.55,4.03-9.52,3.3-.15-.16-.29-.31-.4-.56l.3-.19c-.69-.15-1.29,0-1.87.29-.95-.26-1.55-.45-2.46-.46-.37-1.36-3.49-.68-5.01-.73.15,1.8-1.83,1.54.04,3-.24-.12.28-.22,1.29-.31.23-.06.49-.09.64-.2-.03.05-.06.1-.1.16.99-.05,2.29-.11,3.76-.18-1.18.93-2.42,1.72-4.11.74-.76,1.17-1.6,2.37-2.07,2.94-2.11-2.48-6.12-3.78-6.7-5.32-4.61,1.08-10.88.82-13.73,4.25-1.31.45-1.53-.95-2.02-1.47.75-.35,1.66-.31,2.06-.8-2.61.91-7.78.45-8.37,2.82-3.33-1.02,1.83-2.2-2.72-1.75l.6-.73c-9.01-3.64-14.46,6.26-24.45,1.56.69.29,1.04.42,1.18.81-11.34-1.96-23.28,2.36-34.49-.84-3.18-.63-3.5.88-5.42,2.06l-.72-1.92-3.27,2.29c-4.67,1.71-8.21-4.61-14.1-1.43l.79,1.29c-2.14-.21-6.75.88-6.42-.62-.21.24-.68,1.37-1.52.7l-.08-1.01-5.21,1.82c-4.08-.67.57-4.03-5.37-4.13-2.2.43-6.23,3.05-5.39,3.71.89.04,2.28.59,2.37,1.61l-2.01.56c-.32,2.99-1.81,6.07,3.17,8.07l3.42-1.88,1.14,1.43-2.9.14c1.67,1.33,2.69.11,3.85-.73.29.76.78,1.29,1.47,1.57l3.34-2.9c.43,1.16-1.48,2.34.8,2.95,1.56-1.35-1.56-2.59,1.05-3.5,1.67,1.33,1.21,2.44,3.13,1.25.28.76-.12,1.26-.88,1.61,1.71-.95,4.56-.46,5.42-2.06,1.75,1.64,5.81-.53,5.69,2.29.53-.68,3-2.27,4.58-2.41-2.84,3.43,5.93.1,5.22,3.74,2.09-3.07,7.71-1.48,11.48-3.22-.21.24-.62.74-.95.59,2.14.22,2.77,1.12,4.15,1.67.23-2.51,3.55-3.14,5.32-4.71,2.65,2.38-1.54,2.97-.68,5.28-.16-2.03,4.51-2.1,3.6-3.78,2.02,1.47,1.74.7,2.8,2.76.3-3.14,1.85-.56,3.48-2.51,2.92,1.5.79,2.93,3.96,1.92,1.53.94-1.28,2.09-1.28,2.09ZM272.83,253.29s0,.04,0,.04c-.65.05-1.21.1-1.56.12.32-.03.77-.08,1.56-.16ZM279.19,253.17c-.77-.06-1.74-.06-2.76-.03-.23-.62,0-1.26.64-1.24-.34.42,1.16.76,2.12,1.27ZM265.56,240.89c1-.27,1.34.08,1.49.45-.47.04-1.03.11-1.76.24-.03.06-.08.16-.12.22.09-.35.2-.67.38-.91Z"/>
  <path class="cls-1" d="M253.84,233.69c-.14.04-.21.11-.39.13.19.14.38.27.57.37.11-.18.22-.37.33-.53-.17.01-.35.02-.51.03Z"/>
  <path class="cls-1" d="M792.68,231.08l-.13-.04c.1.07.2.13.26.24-.08-.08-.08-.13-.14-.2Z"/>
  <polygon class="cls-1" points="350.34 245.05 350.32 244.63 349.81 245.01 350.34 245.05"/>
  <path class="cls-1" d="M825.44,236.72c.06.15.19.3.43.43-.02-.11-.21-.26-.43-.43Z"/>
  <path class="cls-1" d="M839.58,237.05l2,.59c-.87-.34-1.5-.5-2-.59Z"/>
  <path class="cls-1" d="M850.46,237.84c.14-.3.18-.52.21-.72h-.02s-.19.72-.19.72Z"/>
  <path class="cls-1" d="M677.61,240.68c-.15,0-.29.03-.42.08-.98.33-.31.2.42-.08Z"/>
  <path class="cls-1" d="M729.03,236.44c-.54.31-1.08.61-1.65.8.92.12,1.63.15,1.65-.8Z"/>
  <path class="cls-1" d="M620.19,243.11s0-.01,0-.03c-.12,0-.23,0-.35,0l.35.03Z"/>
  <path class="cls-1" d="M724.99,237.22c.92.33,1.68.25,2.39.02-.75-.11-1.64-.28-2.39-.02Z"/>
  <path class="cls-1" d="M897.58,238.47l.52.07c0-.11.02-.2.06-.27l-.59.2Z"/>
  <path class="cls-1" d="M898.16,238.27l.58-.2c-.27,0-.5.01-.58.2Z"/>
  <path class="cls-1" d="M899.97,237.64l-1.22.43c.42,0,.95.05,1.22-.43Z"/>
  <path class="cls-1" d="M883.19,237.73l-.16.61c.09-.13.15-.32.16-.61Z"/>
  <path class="cls-1" d="M878.81,237.92c1.04.14,2.62,1.3,4.08.91l.13-.49c-.68.91-3.22-1.45-4.21-.42Z"/>
  <path class="cls-1" d="M860.53,230.42l3.67.48c-.64-.65-1.49-1.52.18-1.68-4.63-1.93.96,1.45-3.85,1.2Z"/>
  <path class="cls-1" d="M849.16,229.52c1.97-.31-.03-.94.08-1.31-1.25.6-1.55.75-.08,1.31Z"/>
  <path class="cls-1" d="M767.03,229.86l.19-1.53c-1.52.23-.01.59-.19,1.53Z"/>
  <polygon class="cls-1" points="751.37 237.85 752.85 238.8 753.55 237.39 751.37 237.85"/>
  <polygon class="cls-1" points="742.04 226.99 742.7 226.77 740.17 227.34 742.04 226.99"/>
  <path class="cls-1" d="M604.1,228.46l.47,1.88c1.02-.35,1.22-2.47-.47-1.88Z"/>
  <path class="cls-1" d="M544.56,230.89c-.66-.94-2.34-1.53-3.36-.59,1.34.12,2.68.84,3.36.59Z"/>
  <polygon class="cls-1" points="365.94 229.73 367.13 229.08 364.88 229.63 365.94 229.73"/>
</svg>